<svg width="412" height="271" viewBox="0 0 412 271" fill="none" xmlns="http://www.w3.org/2000/svg">
<path d="M-6 270.963C-2.40221 246.858 28.6044 192.063 135 239.967C240.525 287.478 332.297 130.633 417 106.963V61.9631C392.333 47.1298 274.2 58.0631 217 116.463C159.8 174.863 63.6667 119.796 -4.5 97.9632L-6 270.963Z" fill="#FDF6EB"/>
<path d="M53 104C53 117.807 41.1355 129 26.5 129C11.8645 129 0 117.807 0 104C0 90.1929 11.8645 79 26.5 79C41.1355 79 53 90.1929 53 104Z" fill="#FDF6EB"/>
<path d="M86 124.5C86 139.688 72.7924 152 56.5 152C40.2076 152 27 139.688 27 124.5C27 109.312 40.2076 97 56.5 97C72.7924 97 86 109.312 86 124.5Z" fill="#FDF6EB"/>
<path d="M216 125.5C216 140.688 202.792 153 186.5 153C170.208 153 157 140.688 157 125.5C157 110.312 170.208 98 186.5 98C202.792 98 216 110.312 216 125.5Z" fill="#FDF6EB"/>
<path d="M358 70.5C358 85.6878 344.792 98 328.5 98C312.208 98 299 85.6878 299 70.5C299 55.3122 312.208 43 328.5 43C344.792 43 358 55.3122 358 70.5Z" fill="#FDF6EB"/>
<path d="M275 100C275 122.644 255.301 141 231 141C206.699 141 187 122.644 187 100C187 77.3563 206.699 59 231 59C255.301 59 275 77.3563 275 100Z" fill="#FDF6EB"/>
<path d="M445 56.5092C445 87.7183 425.903 97 391.662 97C357.42 97 321 87.7183 321 56.5092C321 25.3 348.758 0 383 0C417.242 0 445 25.3 445 56.5092Z" fill="#FDF6EB"/>
</svg>
