<svg width="412" height="363" viewBox="0 0 412 363" fill="none" xmlns="http://www.w3.org/2000/svg">
<path opacity="0.35" d="M0 0H412V160L201 219.5L157 254.5L43.5 219.5L0 195.5V0Z" fill="#F6A68D"/>
<path d="M-6 362.963C-2.40221 338.858 28.6044 284.063 135 331.967C240.525 379.478 332.297 222.633 417 198.963V153.963C392.333 139.13 274.2 150.063 217 208.463C159.8 266.863 63.6667 211.796 -4.5 189.963L-6 362.963Z" fill="#FDF6EB"/>
<path d="M53 196C53 209.807 41.1355 221 26.5 221C11.8645 221 0 209.807 0 196C0 182.193 11.8645 171 26.5 171C41.1355 171 53 182.193 53 196Z" fill="#FDF6EB"/>
<path d="M86 216.5C86 231.688 72.7924 244 56.5 244C40.2076 244 27 231.688 27 216.5C27 201.312 40.2076 189 56.5 189C72.7924 189 86 201.312 86 216.5Z" fill="#FDF6EB"/>
<path d="M216 217.5C216 232.688 202.792 245 186.5 245C170.208 245 157 232.688 157 217.5C157 202.312 170.208 190 186.5 190C202.792 190 216 202.312 216 217.5Z" fill="#FDF6EB"/>
<path d="M358 162.5C358 177.688 344.792 190 328.5 190C312.208 190 299 177.688 299 162.5C299 147.312 312.208 135 328.5 135C344.792 135 358 147.312 358 162.5Z" fill="#FDF6EB"/>
<path d="M275 192C275 214.644 255.301 233 231 233C206.699 233 187 214.644 187 192C187 169.356 206.699 151 231 151C255.301 151 275 169.356 275 192Z" fill="#FDF6EB"/>
<path d="M445 148.509C445 179.718 425.903 189 391.662 189C357.42 189 321 179.718 321 148.509C321 117.3 348.758 92 383 92C417.242 92 445 117.3 445 148.509Z" fill="#FDF6EB"/>
</svg>
